# xmcd
#
# Track frame offsets:
#	182
#	25415
#	39000
#	52300
#	74702
#	98580
#	109865
#	122845
#	136702
#	161535
#	174077
#	186017
#	201555
#	214360
#	231632
#
# Disc length: 3369 seconds
#
# Revision: 0
# Processed by: cddbd v1.5.1PL0 Copyright (c) Steve Scherf et al.
# Submitted via: dBpowerAMP V4.0
#
DISCID=dd0d270f
DTITLE=Various Artist - Le Meilleur du Blues Cd2
DYEAR=1994
DGENRE=Blues
TTITLE0=I'm a man (Muddy Waters -Howlin'Wolf-Bo Diddley-Little Water-Buddy Guy)
TTITLE1=Somkestack Lightnin' (Howlin'Wolf)
TTITLE2=Highway (Howlin'Wolf)
TTITLE3=All your love (John Mayall's)
TTITLE4=One life to live (John Mayall's)
TTITLE5=Boom Boom (John Lee Hooker)
TTITLE6=I'm so excited (John Lee Hooker)
TTITLE7=Before you accuse me (Bo Diddley)
TTITLE8=Constipation blues (Screamin' Jay Hawkins)
TTITLE9=Angel child (Arthur "big boy" crudup)
TTITLE10=Trouble no more (Muddy Waters)
TTITLE11=The getaway (Fenton Robinson)
TTITLE12=The getaway (Fenton Robinson)
TTITLE13=Honky tonk (Walter "Wolfman")
TTITLE14=See see rider (Jimmy Witherspoon)
EXTD=
EXTT0=
EXTT1=
EXTT2=
EXTT3=
EXTT4=
EXTT5=
EXTT6=
EXTT7=
EXTT8=
EXTT9=
EXTT10=
EXTT11=
EXTT12=
EXTT13=
EXTT14=
PLAYORDER=
